<svg width="120" height="120" viewBox="0 0 120 120" fill="none" xmlns="http://www.w3.org/2000/svg">
  <!-- Cloud -->
  <path d="M40 75H80C87 75 92 70 92 64C92 58 88 54 83 52C81 45 75 41 68 41C65 41 61 42 58 44C55 39 50 36 44 36C36 36 30 43 30 51C22 53 18 58 18 64C18 70 24 75 31 75H40Z" fill="#E3F2FD" stroke="#2196F3" stroke-width="2"/>

  <!-- Shield with Gear (Admin + Security) -->
  <path d="M60 50L72 56V65C72 71 67 77 60 80C53 77 48 71 48 65V56L60 50Z" fill="#1E88E5" stroke="#1565C0" stroke-width="2"/>
  <circle cx="60" cy="62" r="4" fill="white"/>
  <path d="M60 55V59M60 65V69M65 62H69M51 62H55" stroke="white" stroke-width="1.5" stroke-linecap="round"/>

  <!-- AI Circuit -->
  <g stroke="#4CAF50" stroke-width="2" stroke-linecap="round">
    <circle cx="90" cy="90" r="6" fill="#A5D6A7"/>
    <line x1="90" y1="84" x2="90" y2="78"/>
    <line x1="84" y1="90" x2="78" y2="90"/>
    <line x1="96" y1="90" x2="102" y2="90"/>
    <line x1="90" y1="96" x2="90" y2="102"/>
  </g>
</svg>