<svg width="120" height="120" viewBox="0 0 120 120" fill="none" xmlns="http://www.w3.org/2000/svg">
  <!-- Cloud -->
  <path d="M40 80H85C92 80 98 74 98 67C98 61 94 56 89 54C87 45 80 40 72 40C69 40 65 41 62 43C59 38 53 35 47 35C37 35 30 43 30 52C22 54 18 60 18 67C18 74 24 80 31 80H40Z" fill="#C8E6FF" stroke="#1A73E8" stroke-width="2"/>

  <!-- Gear (Admin) -->
  <circle cx="60" cy="60" r="10" fill="#1A73E8"/>
  <path d="M60 48V42M60 78V72M72 60H78M42 60H48M68.28 68.28L72.73 72.73M47.27 47.27L51.72 51.72M68.28 51.72L72.73 47.27M47.27 72.73L51.72 68.28" stroke="white" stroke-width="2" stroke-linecap="round"/>

  <!-- AI Brain Chip -->
  <rect x="80" y="80" width="18" height="18" rx="3" fill="#4CAF50"/>
  <path d="M89 80V77M89 98V101M98 89H101M77 89H74M91.5 84.5L86 90M86 84.5L91.5 90" stroke="white" stroke-width="2" stroke-linecap="round"/>

  <!-- Portal Ring -->
  <circle cx="60" cy="60" r="55" stroke="#B0BEC5" stroke-width="2" stroke-dasharray="5 5"/>
</svg>